%TF.GenerationSoftware,KiCad,Pcbnew,8.0.2*%
%TF.CreationDate,2024-05-13T19:00:29+03:00*%
%TF.ProjectId,WiFiRelay,57694669-5265-46c6-9179-2e6b69636164,rev?*%
%TF.SameCoordinates,Original*%
%TF.FileFunction,Soldermask,Bot*%
%TF.FilePolarity,Negative*%
%FSLAX46Y46*%
G04 Gerber Fmt 4.6, Leading zero omitted, Abs format (unit mm)*
G04 Created by KiCad (PCBNEW 8.0.2) date 2024-05-13 19:00:29*
%MOMM*%
%LPD*%
G01*
G04 APERTURE LIST*
G04 Aperture macros list*
%AMRoundRect*
0 Rectangle with rounded corners*
0 $1 Rounding radius*
0 $2 $3 $4 $5 $6 $7 $8 $9 X,Y pos of 4 corners*
0 Add a 4 corners polygon primitive as box body*
4,1,4,$2,$3,$4,$5,$6,$7,$8,$9,$2,$3,0*
0 Add four circle primitives for the rounded corners*
1,1,$1+$1,$2,$3*
1,1,$1+$1,$4,$5*
1,1,$1+$1,$6,$7*
1,1,$1+$1,$8,$9*
0 Add four rect primitives between the rounded corners*
20,1,$1+$1,$2,$3,$4,$5,0*
20,1,$1+$1,$4,$5,$6,$7,0*
20,1,$1+$1,$6,$7,$8,$9,0*
20,1,$1+$1,$8,$9,$2,$3,0*%
G04 Aperture macros list end*
%ADD10R,1.700000X1.700000*%
%ADD11O,1.700000X1.700000*%
%ADD12C,2.000000*%
%ADD13RoundRect,0.102000X-1.275000X1.275000X-1.275000X-1.275000X1.275000X-1.275000X1.275000X1.275000X0*%
%ADD14C,2.754000*%
%ADD15R,1.700000X2.000000*%
%ADD16O,1.700000X2.000000*%
%ADD17C,1.800000*%
%ADD18R,2.000000X3.000000*%
%ADD19C,3.000000*%
%ADD20R,1.800000X1.800000*%
%ADD21O,1.800000X1.800000*%
G04 APERTURE END LIST*
D10*
%TO.C,UART1*%
X141830000Y-125250000D03*
D11*
X139290000Y-125250000D03*
X136750000Y-125250000D03*
X134210000Y-125250000D03*
%TD*%
D10*
%TO.C,SW2*%
X136830000Y-118000000D03*
D11*
X134290000Y-118000000D03*
%TD*%
D12*
%TO.C,F1*%
X68460000Y-103000000D03*
X73540000Y-103010000D03*
%TD*%
D13*
%TO.C,J2*%
X73000000Y-109000000D03*
D14*
X73000000Y-114080000D03*
X73000000Y-119160000D03*
X73000000Y-124240000D03*
%TD*%
D15*
%TO.C,PS1*%
X85252500Y-97042500D03*
D16*
X85252500Y-102042500D03*
X114332500Y-92042500D03*
X114332500Y-107042500D03*
%TD*%
D12*
%TO.C,F2*%
X68460000Y-96750000D03*
X73540000Y-96760000D03*
%TD*%
D17*
%TO.C,K1*%
X107880000Y-116650000D03*
X107880000Y-124250000D03*
D18*
X82500000Y-116650000D03*
X82500000Y-124250000D03*
D19*
X87580000Y-116650000D03*
X87580000Y-124250000D03*
X92660000Y-116650000D03*
X92660000Y-124250000D03*
%TD*%
D20*
%TO.C,D2*%
X121000000Y-105725000D03*
D17*
X121000000Y-108265000D03*
%TD*%
D20*
%TO.C,D1*%
X114000000Y-123000000D03*
D21*
X114000000Y-125540000D03*
%TD*%
G36*
X84943039Y-122019685D02*
G01*
X84988794Y-122072489D01*
X85000000Y-122124000D01*
X85000000Y-126376000D01*
X84980315Y-126443039D01*
X84927511Y-126488794D01*
X84876000Y-126500000D01*
X70624000Y-126500000D01*
X70556961Y-126480315D01*
X70511206Y-126427511D01*
X70500000Y-126376000D01*
X70500000Y-122124000D01*
X70519685Y-122056961D01*
X70572489Y-122011206D01*
X70624000Y-122000000D01*
X84876000Y-122000000D01*
X84943039Y-122019685D01*
G37*
G36*
X78515677Y-101019685D02*
G01*
X78536319Y-101036319D01*
X89713681Y-112213681D01*
X89747166Y-112275004D01*
X89750000Y-112301362D01*
X89750000Y-118376000D01*
X89730315Y-118443039D01*
X89677511Y-118488794D01*
X89626000Y-118500000D01*
X85374000Y-118500000D01*
X85306961Y-118480315D01*
X85261206Y-118427511D01*
X85250000Y-118376000D01*
X85250000Y-114000000D01*
X76750000Y-105500000D01*
X71624000Y-105500000D01*
X71556961Y-105480315D01*
X71511206Y-105427511D01*
X71500000Y-105376000D01*
X71500000Y-101124000D01*
X71519685Y-101056961D01*
X71572489Y-101011206D01*
X71624000Y-101000000D01*
X78448638Y-101000000D01*
X78515677Y-101019685D01*
G37*
G36*
X70693039Y-100519685D02*
G01*
X70738794Y-100572489D01*
X70750000Y-100624000D01*
X70750000Y-106750000D01*
X75126000Y-106750000D01*
X75193039Y-106769685D01*
X75238794Y-106822489D01*
X75250000Y-106874000D01*
X75250000Y-111126000D01*
X75230315Y-111193039D01*
X75177511Y-111238794D01*
X75126000Y-111250000D01*
X66374000Y-111250000D01*
X66306961Y-111230315D01*
X66261206Y-111177511D01*
X66250000Y-111126000D01*
X66250000Y-100624000D01*
X66269685Y-100556961D01*
X66322489Y-100511206D01*
X66374000Y-100500000D01*
X70626000Y-100500000D01*
X70693039Y-100519685D01*
G37*
M02*
