%TF.GenerationSoftware,KiCad,Pcbnew,8.0.2*%
%TF.CreationDate,2024-05-13T19:00:29+03:00*%
%TF.ProjectId,WiFiRelay,57694669-5265-46c6-9179-2e6b69636164,rev?*%
%TF.SameCoordinates,Original*%
%TF.FileFunction,Paste,Top*%
%TF.FilePolarity,Positive*%
%FSLAX46Y46*%
G04 Gerber Fmt 4.6, Leading zero omitted, Abs format (unit mm)*
G04 Created by KiCad (PCBNEW 8.0.2) date 2024-05-13 19:00:29*
%MOMM*%
%LPD*%
G01*
G04 APERTURE LIST*
G04 Aperture macros list*
%AMRoundRect*
0 Rectangle with rounded corners*
0 $1 Rounding radius*
0 $2 $3 $4 $5 $6 $7 $8 $9 X,Y pos of 4 corners*
0 Add a 4 corners polygon primitive as box body*
4,1,4,$2,$3,$4,$5,$6,$7,$8,$9,$2,$3,0*
0 Add four circle primitives for the rounded corners*
1,1,$1+$1,$2,$3*
1,1,$1+$1,$4,$5*
1,1,$1+$1,$6,$7*
1,1,$1+$1,$8,$9*
0 Add four rect primitives between the rounded corners*
20,1,$1+$1,$2,$3,$4,$5,0*
20,1,$1+$1,$4,$5,$6,$7,0*
20,1,$1+$1,$6,$7,$8,$9,0*
20,1,$1+$1,$8,$9,$2,$3,0*%
G04 Aperture macros list end*
%ADD10RoundRect,0.250000X-0.450000X0.350000X-0.450000X-0.350000X0.450000X-0.350000X0.450000X0.350000X0*%
%ADD11RoundRect,0.250000X0.400000X0.625000X-0.400000X0.625000X-0.400000X-0.625000X0.400000X-0.625000X0*%
%ADD12RoundRect,0.250000X0.650000X-0.412500X0.650000X0.412500X-0.650000X0.412500X-0.650000X-0.412500X0*%
%ADD13RoundRect,0.250000X-0.400000X-0.625000X0.400000X-0.625000X0.400000X0.625000X-0.400000X0.625000X0*%
%ADD14RoundRect,0.250000X0.625000X-0.400000X0.625000X0.400000X-0.625000X0.400000X-0.625000X-0.400000X0*%
%ADD15R,2.500000X1.000000*%
%ADD16R,1.000000X1.800000*%
%ADD17RoundRect,0.150000X0.587500X0.150000X-0.587500X0.150000X-0.587500X-0.150000X0.587500X-0.150000X0*%
G04 APERTURE END LIST*
D10*
%TO.C,IO0*%
X142000000Y-118250000D03*
X142000000Y-120250000D03*
%TD*%
D11*
%TO.C,R3*%
X128750000Y-123000000D03*
X125650000Y-123000000D03*
%TD*%
D12*
%TO.C,C2*%
X116250000Y-117562500D03*
X116250000Y-114437500D03*
%TD*%
D13*
%TO.C,R1*%
X120200000Y-96950000D03*
X123300000Y-96950000D03*
%TD*%
D14*
%TO.C,R6*%
X119250000Y-117550000D03*
X119250000Y-114450000D03*
%TD*%
D15*
%TO.C,U1*%
X126900000Y-97000000D03*
X126900000Y-99000000D03*
X126900000Y-101000000D03*
X126900000Y-103000000D03*
X126900000Y-105000000D03*
X126900000Y-107000000D03*
X126900000Y-109000000D03*
X126900000Y-111000000D03*
D16*
X129500000Y-112500000D03*
X131500000Y-112500000D03*
X133500000Y-112500000D03*
X135500000Y-112500000D03*
X137500000Y-112500000D03*
X139500000Y-112500000D03*
D15*
X142100000Y-111000000D03*
X142100000Y-109000000D03*
X142100000Y-107000000D03*
X142100000Y-105000000D03*
X142100000Y-103000000D03*
X142100000Y-101000000D03*
X142100000Y-99000000D03*
X142100000Y-97000000D03*
%TD*%
D17*
%TO.C,Q1*%
X121500000Y-125500000D03*
X121500000Y-123600000D03*
X119625000Y-124550000D03*
%TD*%
D13*
%TO.C,R5*%
X125700000Y-126000000D03*
X128800000Y-126000000D03*
%TD*%
D12*
%TO.C,C1*%
X113250000Y-117562500D03*
X113250000Y-114437500D03*
%TD*%
D14*
%TO.C,R4*%
X127000000Y-119050000D03*
X127000000Y-115950000D03*
%TD*%
D13*
%TO.C,R2*%
X120200000Y-100950000D03*
X123300000Y-100950000D03*
%TD*%
M02*
